# AST/ASF file generated using VICON BodyLanguage
# -----------------------------------------------
:version 1.10
:name VICON
:units
  mass 1.0
  length 0.45
  angle deg
:documentation
   .ast/.asf automatically generated from VICON data using
   VICON BodyBuilder and BodyLanguage model FoxedUp or BRILLIANT.MOD
:root
   order TX TY TZ RX RY RZ
   axis XYZ
   position 0 0 0  
   orientation 0 0 0 
:bonedata
  begin
     id 1 
     name lhipjoint
     direction 0.621036 -0.695554 0.361275 
     length 2.46325 
     axis 0 0 0  XYZ
  end
  begin
     id 2 
     name lfemur
     direction 0.34202 -0.939693 0  
     length 6.54784  
     axis 0 0 20  XYZ
    dof rx ry rz
    limits (-160.0 20.0)
           (-70.0 70.0)
           (-60.0 70.0)
  end
  begin
     id 3 
     name ltibia
     direction 0.34202 -0.939693 0   
     length 7.84737   
     axis 0 0 20   XYZ
    dof rx
    limits (-10.0 170.0)
  end
  begin
     id 4 
     name lfoot
     direction 0.0790693 -0.217241 0.97291   
     length 2.59747   
     axis -90 7.62852e-016 20   XYZ
    dof rx rz
    limits (-45.0 90.0)
           (-70.0 20.0)
  end
  begin
     id 5 
     name ltoes
     direction 1.53572e-011 -4.21898e-011 1   
     length 1.29919   
     axis -90 7.62852e-016 20   XYZ
    dof rx
    limits (-90.0 20.0)
  end
  begin
     id 6 
     name rhipjoint
     direction -0.602353 -0.708375 0.367935   
     length 2.41867  
     axis 0 0 0  XYZ 
  end
  begin
     id 7 
     name rfemur
     direction -0.34202 -0.939693 0   
     length 6.92065   
     axis 0 0 -20   XYZ
    dof rx ry rz
    limits (-160.0 20.0)
           (-70.0 70.0)
           (-70.0 60.0)
  end
  begin
     id 8 
     name rtibia
     direction -0.34202 -0.939693 0   
     length 7.88883   
     axis 0 0 -20   XYZ
    dof rx
    limits (-10.0 170.0)
 end
 begin
     id 9 
     name rfoot
     direction -0.0768692 -0.211196 0.974416   
     length 2.43714  
     axis -90 -7.62852e-016 -20   XYZ
    dof rx rz
    limits (-45.0 90.0)
           (-20.0 70.0)
  end
  begin
     id 10 
     name rtoes
     direction -1.53575e-011 -4.21933e-011 1   
     length 1.22113   
     axis -90 -7.62852e-016 -20   XYZ
    dof rx
    limits (-90.0 20.0)
  end
  begin
     id 11 
     name lowerback
     direction 0.0197937 0.98943 -0.143655   
     length 2.16931   
     axis 0 0 0   XYZ
    dof rx ry rz
    limits (-20.0 45.0)
           (-30.0 30.0)
           (-30.0 30.0)
  end
  begin
     id 12 
     name upperback
     direction -0.00183968 0.999975 0.00684288   
     length 2.17221   
     axis 0 0 0   XYZ
    dof rx ry rz
    limits (-20.0 45.0)
           (-30.0 30.0)
           (-30.0 30.0)
  end
  begin
     id 13 
     name thorax
     direction -0.00950244 0.997208 0.0740685   
     length 2.22549   
     axis 0 0 0   XYZ
    dof rx ry rz
    limits (-20.0 45.0)
           (-30.0 30.0)
           (-30.0 30.0)
  end
  begin
     id 14 
     name lowerneck
     direction 0.0218238 0.996215 0.0841425   
     length 1.77269   
     axis 0 0 0   XYZ
    dof rx ry rz
    limits (-20.0 45.0)
           (-30.0 30.0)
           (-30.0 30.0)
  end
  begin
     id 15 
     name upperneck
     direction -0.00430652 0.994214 -0.107332   
     length 1.76534   
     axis 0 0 0   XYZ
    dof rx ry rz
    limits (-20.0 45.0)
           (-30.0 30.0)
           (-30.0 30.0)
  end
  begin
     id 16
     name head
     direction -0.00328946 0.998959 -0.0454998  
     length 1.82634  
     axis 0 0 0   XYZ
    dof rx ry rz
    limits (-20.0 45.0)
           (-30.0 30.0)
           (-30.0 30.0)
  end
  begin
     id 17 
     name lclavicle
     direction 0.970962 0.239191 0.00450212  
     length 3.84872  
     axis 0 0 0   XYZ
    dof ry rz
    limits (-20.0 10.0)
           (0.0 20.0)
  end
  begin
     id 18 
     name lhumerus
     direction 1 -4.48966e-011 5.74696e-028   
     length 5.22771   
     axis 180 -30 -90   XYZ
    dof rx ry rz
    limits (-60.0 90.0)
           (-90.0 90.0)
           (-90.0 90.0)
  end
  begin
     id 19
     name lradius
     direction 1 -4.4896e-011 4.25109e-027   
     length 3.45251   
     axis 180 -30 -90   XYZ
    dof rx
    limits (-10.0 170.0)
  end
  begin
     id 20
     name lwrist
     direction 1 -4.48971e-011 1.15382e-027   
     length 1.72626   
     axis -5.52449e-016 90 90   XYZ
    dof ry
    limits (-180.0 0.0)
 end
  begin
     id 21 
     name lhand
     direction 1 -4.49034e-011 2.30765e-027   
     length 0.552119   
     axis -1.47248e-015 90 90   XYZ
    dof rx rz
    limits (-90.0 90.0)
           (-45.0 45.0)
  end
  begin
     id 22 
     name lfingers
     direction 1 -4.48951e-011 4.61529e-027   
     length 0.445133   
     axis -2.94495e-015 90 90   XYZ
    dof rx
    limits (0.0 90.0)
  end
  begin
     id 23
     name lthumb
     direction 0.707107 -6.34991e-011 0.707107   
     length 0.639124   
     axis -90 45 2.85299e-015   XYZ
    dof rx rz
    limits (-45.0 45.0)
           (-45.0 45.0)
  end
  begin
     id 24 
     name rclavicle
     direction -0.97424 0.222511 -0.0366699   
     length 3.73439  
     axis 0 0 0   XYZ 
    dof ry rz
    limits (-10.0 20.0)
           (-20.0 0.0)
  end
  begin
     id 25 
     name rhumerus
     direction -1 -4.48956e-011 -4.97258e-028  
     length 5.2398   
     axis 180 30 90   XYZ
    dof rx ry rz
    limits (-90.0 60.0)
           (-90.0 90.0)
           (-90.0 90.0)
  end
  begin
     id 26 
     name rradius
     direction -1 -4.4897e-011 -1.72611e-027   
     length 3.48042   
     axis 180 30 90   XYZ
    dof rx
    limits (-10.0 170.0)
  end
  begin
     id 27 
     name rwrist
     direction -1 -4.48976e-011 1.15382e-027   
     length 1.74021   
     axis -5.52449e-016 -90 -90   XYZ
    dof ry
    limits (-180.0 0.0)
  end
  begin
     id 28
     name rhand
     direction -1 -4.48963e-011 2.30765e-027   
     length 0.618713   
     axis -1.47248e-015 -90 -90   XYZ
    dof rx rz
    limits (-90.0 90.0)
           (-45.0 45.0)
  end
  begin
     id 29
     name rfingers
     direction -1 -4.4888e-011 4.61529e-027   
     length 0.498823   
     axis -2.94495e-015 -90 -90   XYZ
    dof rx
    limits (0.0 90.0)
  end
  begin
     id 30
     name rthumb
     direction -0.707107 -6.34968e-011 0.707107   
     length 0.716213   
     axis -90 -45 -2.85299e-015   XYZ
    dof rx rz
    limits (-45.0 45.0)
           (-45.0 45.0)
  end
:hierarchy
  begin
    root lhipjoint rhipjoint lowerback
    lhipjoint lfemur
    lfemur ltibia
    ltibia lfoot
    lfoot ltoes
    rhipjoint rfemur
    rfemur rtibia
    rtibia rfoot
    rfoot rtoes
    lowerback upperback
    upperback thorax
    thorax lowerneck lclavicle rclavicle
    lowerneck upperneck
    upperneck head
    lclavicle lhumerus
    lhumerus lradius
    lradius lwrist
    lwrist lhand lthumb
    lhand lfingers
    rclavicle rhumerus
    rhumerus rradius
    rradius rwrist
    rwrist rhand rthumb
    rhand rfingers
  end

#!OML:ASF G:\JayActor3\Patient Classification 1\Patient 1\Session 5\male.ASF
:FULLY-SPECIFIED
:DEGREES
167
root -39.9833 16.6152 -5.03977 -135.476 87.0106 -149.931
lowerback 22.7572 -1.62417 1.68522
upperback 8.81954 -1.10829 -1.05237
thorax -3.1033 -0.214012 -1.83068
lowerneck -0.0535513 -0.979702 1.54769
upperneck -19.3576 -0.111101 3.61415
head -5.83728 -0.164317 0.862207
rclavicle 1.70955e-014 9.54166e-015
rhumerus -30.0497 4.39445 -89.5692
rradius 45.7805
rwrist -6.28991
rhand -20.0286 -9.83513
rfingers 7.12502
rthumb 6.3122 -39.7211
lclavicle 1.70955e-014 9.54166e-015
lhumerus -27.8083 1.46552 81.5489
lradius 41.8314
lwrist 25.3343
lhand -18.9251 14.1147
lfingers 7.12502
lthumb 7.37747 43.966
rfemur -48.9944 -3.78216 21.7049
rtibia 64.6177
rfoot -10.0703 -3.54237
rtoes -6.39101
lfemur -46.8067 9.85391 -18.2679
ltibia 58.5614
lfoot -2.15785 -9.93459
ltoes -23.0974
168
root -39.9966 16.6038 -5.03895 -136.171 87.0634 -150.776
lowerback 23.1588 -1.64211 1.64431
upperback 8.85524 -1.1222 -1.0852
thorax -3.2641 -0.216811 -1.83706
lowerneck 0.00882578 -0.970993 1.56675
upperneck -19.7166 -0.0714289 3.59012
head -5.96226 -0.143357 0.850872
rclavicle 1.35174e-014 4.37326e-015
rhumerus -30.0244 4.48164 -89.5605
rradius 46.0132
rwrist -6.40325
rhand -20.0259 -9.84112
rfingers 7.12502
rthumb 6.3148 -39.727
lclavicle 1.35174e-014 4.37326e-015
lhumerus -27.8395 1.37335 81.4904
lradius 42.0449
lwrist 25.4626
lhand -18.9256 14.09
lfingers 7.12502
lthumb 7.37693 43.9413
rfemur -50.0116 -3.76609 21.5337
rtibia 65.6069
rfoot -8.84939 -3.52939
rtoes -6.57813
lfemur -47.7146 9.83888 -18.285
ltibia 59.4307
lfoot -1.12363 -10.1398
ltoes -23.6473
169
root -40.0094 16.5898 -5.03808 -136.832 87.1034 -151.599
lowerback 23.5427 -1.66505 1.61748
upperback 8.88857 -1.14059 -1.11646
thorax -3.41847 -0.221734 -1.84876
lowerneck 0.0688643 -0.959153 1.59282
upperneck -20.059 -0.0290292 3.56122
head -6.08204 -0.12114 0.836487
rclavicle 1.98785e-015 -3.97569e-015
rhumerus -29.998 4.57289 -89.554
rradius 46.2428
rwrist -6.51811
rhand -20.0369 -9.85562
rfingers 7.12502
rthumb 6.30419 -39.7418
lclavicle 1.98785e-015 -3.97569e-015
lhumerus -27.8636 1.28451 81.4309
lradius 42.2487
lwrist 25.5812
lhand -18.9244 14.0801
lfingers 7.12502
lthumb 7.37815 43.9314
rfemur -50.9968 -3.74483 21.3785
rtibia 66.5317
rfoot -7.71973 -3.55354
rtoes -6.7222
lfemur -48.6314 9.83588 -18.3151
ltibia 60.2961
lfoot -0.146456 -10.2959
ltoes -24.1616
170
root -40.0221 16.5727 -5.03709 -137.486 87.1387 -152.432
lowerback 23.9029 -1.68502 1.59762
upperback 8.91406 -1.15556 -1.14807
thorax -3.56906 -0.225376 -1.86581
lowerneck 0.143709 -0.950515 1.63202
upperneck -20.3892 0.00809741 3.52822
head -6.20091 -0.102538 0.818755
rclavicle 2.18663e-014 1.27222e-014
rhumerus -29.9777 4.65764 -89.5469
rradius 46.4645
rwrist -6.6329
rhand -20.0582 -9.8832
rfingers 7.12502
rthumb 6.28365 -39.77
lclavicle 2.18663e-014 1.27222e-014
lhumerus -27.8814 1.18983 81.3728
lradius 42.4334
lwrist 25.6821
lhand -18.919 14.0932
lfingers 7.12502
lthumb 7.38331 43.9443
rfemur -51.9578 -3.72566 21.2425
rtibia 67.399
rfoot -6.70278 -3.60903
rtoes -6.81727
lfemur -49.5742 9.84686 -18.368
ltibia 61.1642
lfoot 0.789436 -10.395
ltoes -24.5828
171
root -40.0343 16.5525 -5.03556 -138.163 87.1584 -153.298
lowerback 24.2402 -1.7073 1.5756
upperback 8.93997 -1.17432 -1.17003
thorax -3.70729 -0.231083 -1.87031
lowerneck 0.220443 -0.940454 1.66649
upperneck -20.7074 0.0467865 3.49955
head -6.31665 -0.0832044 0.802958
rclavicle -8.34896e-015 4.77083e-015
rhumerus -29.9486 4.75324 -89.5318
rradius 46.6721
rwrist -6.74215
rhand -20.0769 -9.93422
rfingers 7.12502
rthumb 6.26558 -39.8216
lclavicle -8.34896e-015 4.77083e-015
lhumerus -27.8825 1.12263 81.3204
lradius 42.5937
lwrist 25.7602
lhand -18.8985 14.1155
lfingers 7.12502
lthumb 7.40308 43.9659
rfemur -52.8768 -3.72459 21.1426
rtibia 68.2065
rfoot -5.82128 -3.69372
rtoes -6.82202
lfemur -50.5317 9.87234 -18.4392
ltibia 62.0293
lfoot 1.66363 -10.4486
ltoes -25.0345
172
root -40.0461 16.5295 -5.03365 -138.808 87.1624 -154.14
lowerback 24.5537 -1.73002 1.55099
upperback 8.96882 -1.19419 -1.18057
thorax -3.82994 -0.237446 -1.86076
lowerneck 0.301182 -0.93004 1.69084
upperneck -21.0205 0.087345 3.48342
head -6.43171 -0.0631762 0.792646
rclavicle 7.95139e-016 5.56597e-015
rhumerus -29.9077 4.85826 -89.5066
rradius 46.8666
rwrist -6.84625
rhand -20.1016 -9.99193
rfingers 7.12502
rthumb 6.24172 -39.88
lclavicle 7.95139e-016 5.56597e-015
lhumerus -27.8629 1.08071 81.2768
lradius 42.7271
lwrist 25.8212
lhand -18.8671 14.1314
lfingers 7.12502
lthumb 7.43347 43.9808
rfemur -53.7533 -3.75289 21.0883
rtibia 68.9649
rfoot -5.08111 -3.80811
rtoes -6.76507
lfemur -51.5005 9.91157 -18.5261
ltibia 62.8935
lfoot 2.47276 -10.4662
ltoes -25.4934
173
root -40.0574 16.5075 -5.03113 -139.334 87.1476 -154.861
lowerback 24.8591 -1.75422 1.52647
upperback 9.00245 -1.21498 -1.17877
thorax -3.94264 -0.24414 -1.83759
lowerneck 0.380675 -0.919583 1.70512
upperneck -21.326 0.129361 3.48059
head -6.5445 -0.0426224 0.788087
rclavicle 1.39149e-014 -1.27222e-014
rhumerus -29.8492 4.96912 -89.4717
rradius 47.0391
rwrist -6.93945
rhand -20.1325 -10.0372
rfingers 7.12502
rthumb 6.21192 -39.9261
lclavicle 1.39149e-014 -1.27222e-014
lhumerus -27.8239 1.05625 81.2431
lradius 42.8387
lwrist 25.8687
lhand -18.8465 14.1498
lfingers 7.12502
lthumb 7.45333 43.9985
rfemur -54.5558 -3.81092 21.0884
rtibia 69.6586
rfoot -4.48123 -3.95344
rtoes -6.66805
lfemur -52.4407 9.95729 -18.6114
ltibia 63.7279
lfoot 3.2264 -10.4545
ltoes -25.8806
174
root -40.0683 16.4798 -5.02837 -139.661 87.1181 -155.376
lowerback 25.1593 -1.77515 1.5052
upperback 9.04122 -1.22971 -1.16466
thorax -4.04628 -0.247684 -1.80452
lowerneck 0.478072 -0.913769 1.70827
upperneck -21.6409 0.168137 3.49354
head -6.66371 -0.0243155 0.790687
rclavicle -6.36111e-015 7.95139e-016
rhumerus -29.7738 5.07453 -89.4234
rradius 47.1891
rwrist -7.01696
rhand -20.1739 -10.075
rfingers 7.12502
rthumb 6.17197 -39.9651
lclavicle -6.36111e-015 7.95139e-016
lhumerus -27.7644 1.03865 81.2234
lradius 42.9299
lwrist 25.9131
lhand -18.8315 14.1522
lfingers 7.12502
lthumb 7.46776 44.0004
rfemur -55.3224 -3.90007 21.1418
rtibia 70.3264
rfoot -4.01162 -4.12415
rtoes -6.51974
lfemur -53.3744 10.0092 -18.6877
ltibia 64.5592
lfoot 3.91763 -10.4259
ltoes -26.2218
175
root -40.079 16.451 -5.02548 -139.705 87.0789 -155.597
lowerback 25.4699 -1.79309 1.4954
upperback 9.07866 -1.23726 -1.1445
thorax -4.15572 -0.247643 -1.7733
lowerneck 0.587897 -0.911564 1.70789
upperneck -21.9539 0.203923 3.51777
head -6.78484 -0.00835762 0.7977
rclavicle -1.19271e-015 -1.39149e-014
rhumerus -29.6957 5.16883 -89.3712
rradius 47.3228
rwrist -7.08237
rhand -20.2268 -10.0914
rfingers 7.12502
rthumb 6.12087 -39.9829
lclavicle -1.19271e-015 -1.39149e-014
lhumerus -27.6942 1.01236 81.2113
lradius 43.0053
lwrist 25.9593
lhand -18.8147 14.2074
lfingers 7.12502
lthumb 7.48397 44.055
rfemur -56.0346 -4.01347 21.2463
rtibia 70.9514
rfoot -3.64847 -4.31274
rtoes -6.38325
lfemur -54.2664 10.0651 -18.7478
ltibia 65.359
lfoot 4.52899 -10.3916
ltoes -26.5754
176
root -40.09 16.421 -5.0226 -139.508 87.0333 -155.565
lowerback 25.7983 -1.80861 1.49857
upperback 9.11006 -1.23829 -1.12062
thorax -4.2798 -0.244525 -1.74715
lowerneck 0.727279 -0.914675 1.70955
upperneck -22.2738 0.233482 3.54359
head -6.91386 0.00353103 0.805378
rclavicle -6.36111e-015 -3.97569e-016
rhumerus -29.6206 5.24863 -89.3173
rradius 47.4392
rwrist -7.1248
rhand -20.2903 -10.1025
rfingers 7.12502
rthumb 6.05951 -39.9959
lclavicle -6.36111e-015 -3.97569e-016
lhumerus -27.6186 0.973838 81.206
lradius 43.067
lwrist 26.0043
lhand -18.8029 14.2901
lfingers 7.12502
lthumb 7.49541 44.1373
rfemur -56.7032 -4.1453 21.3906
rtibia 71.5459
rfoot -3.37326 -4.50705
rtoes -6.24138
lfemur -55.1152 10.1164 -18.7886
ltibia 66.1279
lfoot 5.06638 -10.3594
ltoes -26.9634
177
root -40.101 16.3906 -5.01994 -139.163 86.9846 -155.377
lowerback 26.1483 -1.82393 1.52127
upperback 9.13391 -1.23423 -1.09873
thorax -4.42239 -0.238936 -1.73566
lowerneck 0.883065 -0.921413 1.71055
upperneck -22.5905 0.258124 3.57082
head -7.04517 0.0124894 0.813999
rclavicle -4.77083e-015 3.57812e-015
rhumerus -29.5525 5.30668 -89.266
rradius 47.5419
rwrist -7.14508
rhand -20.3617 -10.1058
rfingers 7.12502
rthumb 5.99058 -40.0011
lclavicle -4.77083e-015 3.57812e-015
lhumerus -27.5367 0.915157 81.2028
lradius 43.1147
lwrist 26.0496
lhand -18.7909 14.3562
lfingers 7.12502
lthumb 7.50694 44.203
rfemur -57.3338 -4.28968 21.5591
rtibia 72.1098
rfoot -3.15308 -4.6981
rtoes -6.14659
lfemur -55.913 10.1603 -18.8141
ltibia 66.8577
lfoot 5.5223 -10.3412
ltoes -27.4392
178
root -40.1126 16.3598 -5.01787 -138.761 86.9427 -155.134
lowerback 26.5058 -1.83633 1.55878
upperback 9.14426 -1.22408 -1.082
thorax -4.58309 -0.230913 -1.74007
lowerneck 1.06419 -0.932479 1.71904
upperneck -22.9019 0.273944 3.58413
head -7.17969 0.0168649 0.817496
rclavicle -1.98785e-015 -1.66979e-014
rhumerus -29.5012 5.3431 -89.2174
rradius 47.6393
rwrist -7.1469
rhand -20.422 -10.1249
rfingers 7.12502
rthumb 5.93239 -40.0219
lclavicle -1.98785e-015 -1.66979e-014
lhumerus -27.4554 0.832454 81.2029
lradius 43.1519
lwrist 26.0905
lhand -18.7894 14.4044
lfingers 7.12502
lthumb 7.50846 44.2512
rfemur -57.9576 -4.4413 21.7321
rtibia 72.6551
rfoot -2.95082 -4.87232
rtoes -6.1482
lfemur -56.6815 10.1921 -18.8371
ltibia 67.5515
lfoot 5.91006 -10.334
ltoes -28.0077
179
root -40.1246 16.3285 -5.01617 -138.57 86.9087 -155.107
lowerback 26.8683 -1.85039 1.60051
upperback 9.14315 -1.2161 -1.07223
thorax -4.75859 -0.224462 -1.75392
lowerneck 1.25385 -0.94322 1.72707
upperneck -23.1995 0.285959 3.58343
head -7.31166 0.0201888 0.816763
rclavicle 1.70955e-014 2.70347e-014
rhumerus -29.4599 5.36588 -89.1722
rradius 47.729
rwrist -7.13175
rhand -20.4662 -10.1503
rfingers 7.12502
rthumb 5.8897 -40.0484
lclavicle 1.70955e-014 2.70347e-014
lhumerus -27.3729 0.740833 81.2029
lradius 43.1788
lwrist 26.1278
lhand -18.7821 14.405
lfingers 7.12502
lthumb 7.51549 44.2515
rfemur -58.5815 -4.60143 21.8874
rtibia 73.1908
rfoot -2.75418 -5.01929
rtoes -6.15376
lfemur -57.4274 10.2057 -18.872
ltibia 68.2117
lfoot 6.2344 -10.3442
ltoes -28.6627
180
root -40.1365 16.2968 -5.01496 -138.643 86.882 -155.353
lowerback 27.2152 -1.86528 1.64614
upperback 9.1369 -1.20932 -1.06827
thorax -4.93214 -0.218914 -1.77623
lowerneck 1.44093 -0.955029 1.73509
upperneck -23.4825 0.29137 3.56562
head -7.43876 0.0216752 0.810817
rclavicle -2.70347e-014 -4.57205e-014
rhumerus -29.4205 5.37227 -89.1275
rradius 47.8135
rwrist -7.11223
rhand -20.5112 -10.1603
rfingers 7.12502
rthumb 5.84624 -40.0597
lclavicle -2.70347e-014 -4.57205e-014
lhumerus -27.2801 0.639244 81.2063
lradius 43.1952
lwrist 26.1625
lhand -18.7368 14.4743
lfingers 7.12502
lthumb 7.55921 44.3192
rfemur -59.2184 -4.77206 22.0153
rtibia 73.7247
rfoot -2.54443 -5.12847
rtoes -6.18131
lfemur -58.1626 10.2021 -18.9241
ltibia 68.8452
lfoot 6.5187 -10.3648
ltoes -29.3497
181
root -40.1482 16.2647 -5.01405 -139 86.8629 -155.899
lowerback 27.5397 -1.88408 1.69006
upperback 9.12944 -1.20898 -1.07007
thorax -5.09621 -0.216679 -1.80212
lowerneck 1.60883 -0.962911 1.73596
upperneck -23.7447 0.297098 3.53595
head -7.55597 0.0253317 0.802009
rclavicle 3.61788e-014 3.65764e-014
rhumerus -29.3673 5.37851 -89.0862
rradius 47.8862
rwrist -7.09353
rhand -20.5537 -10.1477
rfingers 7.12502
rthumb 5.80521 -40.0482
lclavicle 3.61788e-014 3.65764e-014
lhumerus -27.1789 0.538107 81.2104
lradius 43.2129
lwrist 26.197
lhand -18.7152 14.4859
lfingers 7.12502
lthumb 7.58 44.3301
rfemur -59.8734 -4.94802 22.1078
rtibia 74.2597
rfoot -2.30846 -5.19206
rtoes -6.20846
lfemur -58.8947 10.1825 -18.9941
ltibia 69.4572
lfoot 6.78489 -10.3827
ltoes -29.981
